<?xml version="1.0" encoding="utf-8"?>
<!-- Generator: Adobe Illustrator 16.0.0, SVG Export Plug-In . SVG Version: 6.00 Build 0)  -->
<svg version="1.2" baseProfile="tiny" xmlns="http://www.w3.org/2000/svg" xmlns:xlink="http://www.w3.org/1999/xlink" x="0px"
	 y="0px" width="297.56px" height="297.56px" viewBox="0 0 297.56 297.56" xml:space="preserve">
<g id="Background">
	<path fill-rule="evenodd" fill="#6B93E3" d="M110.114,83.637v140.795l-36.145-57.159v-50.014H39.506
		c-3.362,9.247-4.203,21.435-4.203,31.521c0,70.958,57.509,113.057,104.651,113.057c7.564,11.769,15.13,23.536,22.274,35.304
		c-3.782,0.42-10.927,0.42-12.188,0.42C81.744,297.56,0,251.119,0,148.99c0-18.071,6.724-46.021,15.55-65.354H110.114z
		 M297.56,149.201c0,46.161-22.625,109.764-99.187,141.635l-81.536-124.825l53.797-81.955h45.811l-54.637,85.318l48.753,76.071
		c30.05-20.804,51.905-50.644,51.905-96.455c0-62.062-53.796-113.267-114.107-113.267c-39.156,0-56.598,15.551-58.909,16.602H35.094
		C68.715,11.558,113.476,0,149.2,0C234.518,0,297.56,67.666,297.56,149.201z"/>
</g>
<g id="Layer_1">
</g>
</svg>
